<svg xmlns="http://www.w3.org/2000/svg" width="100%" height="100%" viewBox="0 0 24 24">
  <path fill="none" d="M0 0h24v24H0z"/>
  <path d="m15.509 13.981-2.3-2.3 2.3-2.3a.81423354.81423354 0 1 0-1.151-1.152l-2.305 2.3-2.305-2.3A.814.814 0 1 0 8.597 9.38l2.3 2.3-2.3 2.3a.814.814 0 0 0 1.151 1.149l2.305-2.3 2.305 2.3a.814.814 0 1 0 1.151-1.151Z"/>
  <path d="M19.431 4.304a10.5 10.5 0 1 0 0 14.856 10.519 10.519 0 0 0 0-14.856ZM18.28 18.009a8.878 8.878 0 1 1 0-12.555 8.889 8.889 0 0 1 0 12.555Z"/>
</svg>
