<svg xmlns="http://www.w3.org/2000/svg" width="100%" height="100%" viewBox="0 0 24 24">
  <path d="M19.9 2.813h-4.2v-.7036a2.1165 2.1165 0 0 0-.6157-1.491A2.0975 2.0975 0 0 0 13.6 0H9.4a2.0975 2.0975 0 0 0-1.4843.6185A2.1165 2.1165 0 0 0 7.3 2.1095v.7034H3.1a2.0975 2.0975 0 0 0-1.4843.6185A2.1165 2.1165 0 0 0 1 4.9224v1.4059c0 .1866.0738.3655.2051.4975a.6988.6988 0 0 0 .4953.206h.7548L3.687 22.076v.0056a2.1026 2.1026 0 0 0 .6727 1.3692A2.0846 2.0846 0 0 0 5.7781 24h11.4438a2.0846 2.0846 0 0 0 1.4184-.5493 2.1026 2.1026 0 0 0 .6727-1.3692v-.0056l1.2318-15.0407h.7548a.699.699 0 0 0 .4953-.206A.7053.7053 0 0 0 22 6.3315V4.9224a2.1165 2.1165 0 0 0-.6157-1.491A2.0975 2.0975 0 0 0 19.9 2.813ZM8.7007 2.1094a.7052.7052 0 0 1 .2052-.4974.6988.6988 0 0 1 .4952-.206h4.2a.6986.6986 0 0 1 .4952.206.705.705 0 0 1 .2052.4974v.7035H8.7007v-.7035Zm9.2183 19.8481a.7014.7014 0 0 1-.225.4552.695.695 0 0 1-.4721.1825H5.7792a.6952.6952 0 0 1-.4721-.1825.7014.7014 0 0 1-.225-.4552L3.8605 7.0352h15.2803L17.919 21.9575Zm2.6814-16.3327H2.3996v-.7035a.7051.7051 0 0 1 .2052-.4975.6988.6988 0 0 1 .4952-.206h16.8a.6985.6985 0 0 1 .4952.206.705.705 0 0 1 .2052.4975v.7035Z"/>
  <path d="M11.5011 8.4389a.6987.6987 0 0 0-.4952.206.705.705 0 0 0-.2052.4975v9.9385a.7048.7048 0 0 0 .2146.4793.6986.6986 0 0 0 .9705 0 .7048.7048 0 0 0 .2146-.4793V9.1424a.7052.7052 0 0 0-.2048-.4971.6987.6987 0 0 0-.4945-.2065Zm4.1989 0a.6985.6985 0 0 0-.4952.206.705.705 0 0 0-.2052.4975v9.9385a.7048.7048 0 0 0 .2146.4793.6985.6985 0 0 0 .9705 0 .7048.7048 0 0 0 .2146-.4793V9.1424a.7052.7052 0 0 0-.2048-.4971.6987.6987 0 0 0-.4945-.2065Zm-8.4 0a.6988.6988 0 0 0-.4952.206.7051.7051 0 0 0-.2052.4975v9.9385a.705.705 0 0 0 .2146.4793.6987.6987 0 0 0 .4852.1962.6988.6988 0 0 0 .4853-.1962.705.705 0 0 0 .2146-.4793V9.1424a.7052.7052 0 0 0-.2048-.4971.6988.6988 0 0 0-.4945-.2065Z"/>
</svg>
